<?xml version="1.0" standalone="no"?>
<!DOCTYPE svg PUBLIC "-//W3C//DTD SVG 20010904//EN"
 "http://www.w3.org/TR/2001/REC-SVG-20010904/DTD/svg10.dtd">
<svg version="1.0" xmlns="http://www.w3.org/2000/svg"
 width="512.000000pt" height="512.000000pt" viewBox="0 0 512.000000 512.000000"
 preserveAspectRatio="xMidYMid meet">
<metadata>
Created by potrace 1.11, written by Peter Selinger 2001-2013
</metadata>
<g transform="translate(0.000000,512.000000) scale(0.100000,-0.100000)"
fill="#000000" stroke="none">
<path d="M450 4804 c-212 -45 -391 -223 -435 -431 -12 -58 -15 -337 -15 -1813
0 -1929 -3 -1814 65 -1951 74 -146 239 -269 399 -298 41 -8 695 -11 2100 -11
1733 0 2051 3 2109 15 208 44 388 225 433 434 11 55 14 352 14 1807 0 1192 -3
1759 -11 1800 -29 160 -153 326 -299 398 -144 70 5 66 -2255 65 -1710 0 -2051
-3 -2105 -15z m4261 -190 c78 -37 136 -87 177 -152 58 -91 62 -122 62 -494 l0
-338 -2390 0 -2390 0 0 338 c0 372 4 403 62 494 53 84 151 155 245 177 22 5
924 8 2103 8 l2065 -2 66 -31z m239 -2478 c0 -1292 0 -1325 -20 -1387 -35
-112 -137 -218 -245 -256 -47 -17 -173 -18 -2125 -18 -1952 0 -2078 1 -2125
18 -108 38 -210 144 -245 256 -20 62 -20 95 -20 1387 l0 1324 2390 0 2390 0 0
-1324z"/>
<path d="M563 4401 c-48 -12 -120 -58 -147 -94 -40 -52 -56 -101 -56 -169 1
-282 370 -366 503 -114 30 58 31 174 0 231 -27 51 -88 110 -134 129 -46 19
-125 27 -166 17z m130 -201 c30 -34 34 -67 12 -109 -28 -55 -110 -65 -152 -18
-43 47 -33 115 21 148 41 26 83 18 119 -21z"/>
<path d="M1354 4387 c-109 -41 -174 -138 -174 -256 1 -136 103 -246 240 -258
240 -22 382 261 221 440 -69 76 -195 109 -287 74z m160 -188 c36 -43 35 -91
-3 -130 -22 -21 -39 -29 -66 -29 -83 0 -127 105 -69 164 40 39 103 37 138 -5z"/>
<path d="M2176 4386 c-54 -20 -106 -65 -141 -121 -27 -44 -30 -57 -30 -129 0
-63 5 -90 22 -121 47 -88 138 -144 232 -145 86 0 130 18 191 80 62 61 80 105
80 191 -1 95 -58 187 -145 231 -51 27 -156 34 -209 14z m153 -182 c26 -21 31
-33 31 -69 0 -59 -36 -95 -95 -95 -86 0 -127 100 -66 161 39 38 87 39 130 3z"/>
<path d="M2655 2948 c-24 -22 -37 -76 -202 -858 -161 -763 -174 -837 -161
-860 31 -56 102 -61 139 -9 17 24 359 1618 359 1674 0 36 -42 75 -79 75 -17 0
-41 -10 -56 -22z"/>
<path d="M1933 2583 c-32 -26 -165 -138 -295 -250 -240 -205 -257 -225 -244
-276 6 -25 545 -491 597 -516 26 -13 33 -13 64 2 36 17 49 44 43 93 -2 23 -47
66 -243 233 -132 112 -241 207 -243 211 -1 4 100 94 225 200 125 106 236 202
246 212 27 32 23 92 -9 117 -42 33 -76 27 -141 -26z"/>
<path d="M3046 2609 c-32 -25 -37 -88 -8 -116 9 -10 120 -105 245 -212 125
-107 226 -197 225 -201 -2 -4 -112 -101 -245 -214 -241 -206 -243 -207 -243
-247 0 -64 60 -106 113 -77 37 20 584 487 591 504 10 27 7 59 -9 82 -16 22
-516 452 -564 484 -35 24 -73 23 -105 -3z"/>
</g>
</svg>
